HIERARCHY
ROOT Bip001_Pelvis
{
  OFFSET 34.4345 95.6767 -26.8758
  CHANNELS 6 Xposition Yposition Zposition Zrotation Xrotation Yrotation
  JOINT Bip001_Spine
  {
    OFFSET 1.4188e-005 10.2191 -0.0116013
    CHANNELS 3 Zrotation Xrotation Yrotation
    JOINT Bip001_L_Thigh
    {
      OFFSET 11.0458 -10.2192 0.0116197
      CHANNELS 3 Zrotation Xrotation Yrotation
      JOINT Bip001_L_Calf
      {
        OFFSET -0.707118 -44.0221 0.360014
        CHANNELS 3 Zrotation Xrotation Yrotation
        JOINT Bip001_L_Foot
        {
          OFFSET -0.651902 -40.5938 -3.56146
          CHANNELS 3 Zrotation Xrotation Yrotation
          JOINT Bip001_L_Toe0
          {
            OFFSET 0.0530839 -10.2181 13.1504
            CHANNELS 3 Zrotation Xrotation Yrotation
            End Site
            {
              OFFSET -1.02532e-005 0 7.55606
            }
          }
        }
      }
    }
    JOINT Bip001_R_Thigh
    {
      OFFSET -11.0458 -10.2191 0.0115893
      CHANNELS 3 Zrotation Xrotation Yrotation
      JOINT Bip001_R_Calf
      {
        OFFSET 0.706994 -44.0221 0.35984
        CHANNELS 3 Zrotation Xrotation Yrotation
        JOINT Bip001_R_Foot
        {
          OFFSET 0.651786 -40.5938 -3.5613
          CHANNELS 3 Zrotation Xrotation Yrotation
          JOINT Bip001_R_Toe0
          {
            OFFSET -0.0531479 -10.2181 13.1504
            CHANNELS 3 Zrotation Xrotation Yrotation
            End Site
            {
              OFFSET -1.02894e-005 0 7.55606
            }
          }
        }
      }
    }
    JOINT Bip001_Spine1
    {
      OFFSET 1.87041e-005 14.5736 1.08638
      CHANNELS 3 Zrotation Xrotation Yrotation
      JOINT Bip001_Spine2
      {
        OFFSET 2.24614e-005 14.5058 -1.69078
        CHANNELS 3 Zrotation Xrotation Yrotation
        JOINT Bip001_Neck
        {
          OFFSET 2.20278e-005 15.3945 -0.489414
          CHANNELS 3 Zrotation Xrotation Yrotation
          JOINT Bip001_L_Clavicle
          {
            OFFSET 6.06036 -0.000579998 0.00836775
            CHANNELS 3 Zrotation Xrotation Yrotation
            JOINT Bip001_L_UpperArm
            {
              OFFSET 11.5509 -0.0600302 0.00193952
              CHANNELS 3 Zrotation Xrotation Yrotation
              JOINT Bip001_L_Forearm
              {
                OFFSET 25.9523 0.0806089 -2.15551
                CHANNELS 3 Zrotation Xrotation Yrotation
                JOINT Bip001_L_Hand
                {
                  OFFSET 32.2475 0.153767 1.63968
                  CHANNELS 3 Zrotation Xrotation Yrotation
                  JOINT Bip001_L_Finger0
                  {
                    OFFSET 6.04639 -2.20976 5.90322
                    CHANNELS 3 Zrotation Xrotation Yrotation
                    End Site
                    {
                      OFFSET 4.22375 -1.43895 0.606485
                    }
                  }
                  JOINT Bip001_L_Finger1
                  {
                    OFFSET 11.0826 -0.704819 -0.198153
                    CHANNELS 3 Zrotation Xrotation Yrotation
                    End Site
                    {
                      OFFSET 6.20027 -0.397518 -0.0787166
                    }
                  }
                }
              }
            }
          }
          JOINT Bip001_R_Clavicle
          {
            OFFSET -6.06037 -0.000563197 0.00835105
            CHANNELS 3 Zrotation Xrotation Yrotation
            JOINT Bip001_R_UpperArm
            {
              OFFSET -11.5509 -0.0599978 0.00190698
              CHANNELS 3 Zrotation Xrotation Yrotation
              JOINT Bip001_R_Forearm
              {
                OFFSET -25.9523 0.0806822 -2.15589
                CHANNELS 3 Zrotation Xrotation Yrotation
                JOINT Bip001_R_Hand
                {
                  OFFSET -32.2475 0.153859 1.63989
                  CHANNELS 3 Zrotation Xrotation Yrotation
                  JOINT Bip001_R_Finger0
                  {
                    OFFSET -6.04641 -2.20976 5.90317
                    CHANNELS 3 Zrotation Xrotation Yrotation
                    End Site
                    {
                      OFFSET -4.22376 -1.43895 0.60647
                    }
                  }
                  JOINT Bip001_R_Finger1
                  {
                    OFFSET -11.0826 -0.704794 -0.198182
                    CHANNELS 3 Zrotation Xrotation Yrotation
                    End Site
                    {
                      OFFSET -6.20028 -0.397504 -0.0787333
                    }
                  }
                }
              }
            }
          }
          JOINT Bip001_Head
          {
            OFFSET 1.09673e-005 11.2744 2.05948
            CHANNELS 3 Zrotation Xrotation Yrotation
            End Site
            {
              OFFSET 2.89576e-005 20.8808 -2.77728e-005
            }
          }
        }
      }
    }
  }
}
MOTION
Frames:	10
Frame Time:	0.04
33.6019 95.5398 -25.2866 -0.00358953 0.906906 8.25968 0.117073 0.590466 -0.836366 5.87401 -4.22342 9.65251 0.101095 11.8436 -4.4505 -0.656509 -7.53423 0.0208289 1.72078 -3.53043 -1.42107 -3.61374 1.04186 -1.18231 0.760109 8.64004 -1.83048 -8.77734 -7.75703 -7.41074 2.99415 -10.2496 3.67769 0.242777 1.17914 -1.67407 0.242776 1.17914 -1.67408 2.98667 -9.38226 -0.982022 -21.6833 10.9621 -2.55107 -66.4129 33.7967 16.1501 15.3644 -5.31006 -29.8005 8.08513 0.784574 -4.6034 4.77083e-015 0 -3.18055e-015 3.18055e-015 3.18056e-015 -3.18055e-015 9.97029 13.1521 14.4062 149.62 -76.998 133.754 -47.798 -4.00392 99.0288 -24.9583 -3.42533 1.7431 -8.82781e-032 -3.18055e-015 -1.59028e-015 3.18055e-015 -3.18056e-015 -7.95139e-016 -5.78105 -2.31168 0.880268 
33.631 95.5134 -25.2069 0.0480843 0.901942 9.64814 -0.0508602 0.532644 -0.441946 5.90775 -4.44805 8.50911 0.150407 11.862 -5.33614 -0.518641 -7.45602 0.0236483 1.59813 -3.54497 -1.2657 -3.43343 1.41136 -2.30323 0.866479 8.69577 -1.74965 -9.0226 -7.73648 -8.08868 3.01148 -10.2869 3.66626 -0.0975734 1.06579 -0.883501 -0.0975738 1.06585 -0.883494 3.09425 -10.797 -2.14111 -22.54 11.937 -1.27081 -65.4025 32.4123 16.0559 14.0652 -5.87497 -30.6629 8.38526 0.56452 -4.76894 -6.36111e-015 0 3.18055e-015 -7.95139e-015 -3.18056e-015 6.36111e-015 7.50841 14.4936 16.3494 128.773 -73.4077 115.635 -48.0545 -2.81358 97.7283 -23.6789 -3.71605 1.70577 -3.18055e-015 1.59028e-015 2.38542e-015 -0 0 2.78299e-015 -5.69072 -0.856584 -0.187426 
33.3408 95.515 -25.2027 -0.516102 0.93633 10.7425 -0.141271 0.490481 0.121587 6.91355 -5.16193 7.30599 -0.278638 12.5067 -5.79514 -0.340353 -7.54234 0.0278089 1.60064 -3.63379 -1.27525 -2.40713 1.79687 -2.82171 0.816203 8.02159 -1.73294 -9.30823 -7.1565 -9.04372 3.00969 -10.257 3.62587 -0.286678 0.980218 0.244094 -0.283576 0.97989 0.244406 3.3706 -11.7879 -3.43065 -23.5456 12.5481 -0.522702 -64.0761 32.246 15.6513 12.814 -6.51886 -30.8327 8.26729 0.345796 -4.78209 1.59028e-015 3.18055e-015 -6.36111e-015 -1.59028e-015 6.36111e-015 -6.36111e-015 4.79718 15.3396 18.8348 107.588 -68.3689 99.2225 -47.9798 -0.29752 93.8171 -20.7539 -4.05216 2.57974 -2.20695e-032 3.97569e-016 3.18055e-015 -1.59028e-015 3.97569e-016 3.08116e-015 -5.60353 0.0421883 -1.37017 
33.0603 95.5425 -25.2395 -1.08086 0.782918 11.6086 -0.291635 0.52456 0.791694 7.9679 -5.77656 6.15359 -0.661661 13.1173 -5.88766 -0.700491 -7.89124 0.0320452 1.57382 -3.38158 -1.33478 -1.30999 2.24993 -3.09614 0.794314 7.20253 -1.77114 -9.53075 -6.43042 -9.96308 2.96839 -10.1361 3.58255 -0.589038 1.04593 1.58628 -0.590601 1.04651 1.58613 4.57035 -12.9709 -4.83855 -25.104 13.3106 -0.27632 -62.7319 33.7072 15.181 12.4999 -6.58272 -29.9564 8.15261 0.293501 -4.83743 -1.59028e-015 0 -0 1.59028e-015 3.18056e-015 -0 1.55557 16.3108 21.7021 83.1932 -61.9286 83.3166 -49.1831 4.64735 84.4861 -17.4094 -5.1208 4.24831 -7.95139e-016 0 -9.93923e-017 -3.97569e-016 0 -0 -6.20628 1.52171 -2.25777 
32.9105 95.5916 -25.3757 -1.401 1.15433 12.5224 -0.499411 0.541875 1.24286 8.51479 -6.57658 5.86264 -0.848037 13.0178 -6.58321 -0.417307 -7.49168 0.0346674 1.84794 -3.59942 -1.68807 -0.744626 2.04308 -3.40615 0.961434 6.71698 -1.75169 -9.705 -5.92188 -10.7433 2.927 -10.0016 3.51636 -1.01042 1.07315 2.49061 -1.01042 1.07339 2.49063 5.29227 -13.7332 -5.19107 -25.739 13.9846 -0.543602 -61.3257 34.9373 14.7977 13.2558 -5.89407 -29.5987 6.88279 0.832423 -4.7079 -6.36111e-015 6.36111e-015 -3.18055e-015 -7.95139e-015 6.36111e-015 -3.18055e-015 -2.46616 16.4323 24.9807 37.7967 -46.7327 54.5774 -48.1775 5.72074 56.8048 -15.0582 -5.3794 6.74756 1.59028e-015 0 -0 3.18055e-015 0 -7.95139e-016 -5.96726 3.33491 -2.46266 
32.6401 95.6464 -25.4937 -1.67004 1.33989 13.6104 -0.618367 0.669302 1.6651 9.02644 -7.35035 6.1239 -0.720229 12.9913 -7.72946 -1.75145 -7.93227 0.0147492 1.65215 -2.77187 -1.72989 -0.117015 2.02709 -3.56551 1.05998 5.97376 -1.7411 -10.0489 -5.28303 -11.8531 2.89943 -9.84993 3.41243 -1.2563 1.32028 3.33776 -1.25608 1.3202 3.33777 3.57587 -15.5206 -5.97446 -24.9638 15.7637 -0.073633 -58.7871 36.0031 13.78 13.881 -4.97509 -29.5588 6.28282 0.970195 -4.52249 7.95139e-015 3.18055e-015 3.18055e-015 6.36111e-015 9.54167e-015 3.18055e-015 -6.37002 16.8031 27.9751 33.6556 -42.8742 57.4948 -52.8399 7.56 39.0163 -13.5623 -6.75758 8.76291 -3.18055e-015 3.18055e-015 -2.38542e-015 -3.18055e-015 0 -1.59028e-015 -2.72732 6.66007 -4.19481 
32.3503 95.656 -25.5744 -1.48144 1.1916 15.2707 -0.587652 0.747828 1.51203 9.08822 -7.53463 5.9347 -0.890132 12.6339 -9.1902 -2.42676 -7.87396 -9.78316e-005 0.942146 -2.16718 -1.0551 0.0582927 2.18889 -3.54368 1.05612 6.08099 -2.06314 -10.261 -5.17797 -12.9195 2.86949 -9.71767 3.28127 -1.19049 1.48032 3.03286 -1.19249 1.47984 3.03222 5.94545 -14.1073 -6.50409 -27.5517 13.5299 1.14412 -58.2954 35.9379 13.879 14.0924 -4.48583 -29.8438 7.09442 0.798926 -4.82492 1.59028e-015 3.18055e-015 -3.18055e-015 1.59028e-015 0 -3.18055e-015 -7.46216 15.365 27.1976 36.841 -47.1648 64.8179 -45.8334 7.76772 42.0074 -12.6234 -4.21851 7.8214 1.59028e-015 6.36111e-015 -0 1.59028e-015 6.36111e-015 -0 -4.90826 7.04184 -3.67848 
32.3884 95.6823 -25.614 -0.776571 0.826916 15.9579 -0.55693 0.626978 1.29549 8.19165 -6.4888 7.19132 -0.465571 11.4111 -10.9627 -0.972852 -6.21858 0.0308715 2.00309 -3.36578 -2.02187 -0.62466 2.58984 -4.32116 1.11954 6.86432 -1.89182 -10.1716 -5.64642 -12.8164 2.83395 -9.57394 3.19395 -1.12016 1.24104 2.58915 -1.12426 1.24153 2.59248 7.73989 -12.34 -7.51191 -27.6088 11.3131 1.11828 -61.5521 34.4797 16.7876 13.9306 -3.55636 -30.4997 6.78419 1.08905 -4.70398 -3.18055e-015 3.18055e-015 3.18055e-015 -1.59028e-015 0 -0 -12.0879 11.8176 24.0063 21.9261 -40.5893 58.2709 -40.6964 5.81324 36.6325 -18.3124 -3.95743 6.89651 2.38542e-015 -3.18055e-015 1.19271e-015 3.97569e-015 -3.18056e-015 3.57812e-015 -6.40768 8.0442 -3.74364 
32.4331 95.7996 -25.7077 -0.279319 0.39364 13.8491 -0.374799 0.546448 1.29698 7.66852 -4.85188 6.92539 -0.61417 10.2739 -8.12673 -2.6224 -6.51201 0.0274505 1.70172 -2.47979 -1.85949 -1.36744 2.64989 -3.9412 0.899568 7.32106 -1.56572 -9.85913 -5.85938 -11.5716 2.78219 -9.42645 3.15786 -0.766991 1.08385 2.60307 -0.760856 1.08389 2.60093 6.29886 -11.9016 -7.02842 -26.1096 11.259 0.880459 -62.8454 36.4485 18.361 14.0336 -1.84708 -30.0809 4.20599 1.26906 -4.54534 -1.59028e-015 0 -3.18055e-015 -1.59028e-015 3.18056e-015 -0 -15.6832 9.99888 23.8332 8.51106 -32.5356 54.0933 -36.9593 0.496691 27.9333 -19.4608 -2.91671 6.90241 7.95139e-016 6.36111e-015 -1.98785e-015 7.95139e-016 3.18056e-015 -3.18055e-015 -5.30977 9.36736 -3.75042 
32.2233 95.7641 -25.9599 -0.395109 0.0319145 10.5728 -0.356031 0.704653 1.42132 8.32124 -4.24213 7.91613 -1.21778 10.7077 -5.98743 -2.9148 -7.18842 0.0130592 1.50451 -2.28255 -1.6861 -1.3316 1.50508 -2.53485 0.638194 8.64829 -1.36871 -9.54983 -6.42645 -10.2729 2.68959 -9.26256 3.21026 -0.731581 1.40018 2.84793 -0.728915 1.40018 2.84774 5.54446 -11.6959 -5.74912 -25.8316 11.2551 1.57783 -61.0776 41.2341 17.1939 15.4769 0.349212 -28.2658 -0.00339653 1.36317 -4.38232 1.59028e-015 0 3.18055e-015 1.59028e-015 -3.18056e-015 3.18055e-015 -16.2401 9.79074 24.8729 10.2718 -32.4714 55.9319 -35.4765 -6.64047 29.1868 -10.1997 -1.21972 8.45967 1.59028e-015 3.18055e-015 1.59028e-015 1.59028e-015 3.18056e-015 7.95139e-016 -3.75348 8.0551 -3.25782 
